<svg width="63" height="63" viewBox="0 0 63 63" fill="none" xmlns="http://www.w3.org/2000/svg">
<path d="M40.95 31.5C40.95 34.0063 39.9544 36.41 38.1822 38.1822C36.41 39.9544 34.0063 40.95 31.5 40.95C28.9937 40.95 26.5901 39.9544 24.8179 38.1822C23.0456 36.41 22.05 34.0063 22.05 31.5C22.05 30.9614 22.1067 30.4353 22.2044 29.925H18.9V42.5156C18.9 43.3913 19.6088 44.1 20.4845 44.1H42.5187C42.9384 44.0992 43.3406 43.9319 43.6371 43.6348C43.9335 43.3378 44.1 42.9352 44.1 42.5156V29.925H40.7957C40.8933 30.4353 40.95 30.9614 40.95 31.5ZM31.5 37.8C32.3275 37.7998 33.1469 37.6366 33.9114 37.3197C34.6759 37.0029 35.3704 36.5385 35.9554 35.9532C36.5404 35.3679 37.0044 34.6731 37.3209 33.9085C37.6374 33.1439 37.8002 32.3244 37.8 31.4969C37.7998 30.6693 37.6366 29.8499 37.3197 29.0855C37.0029 28.321 36.5385 27.6264 35.9532 27.0414C35.3679 26.4564 34.6731 25.9924 33.9085 25.6759C33.1439 25.3594 32.3244 25.1967 31.4969 25.1969C29.8256 25.1973 28.2229 25.8616 27.0414 27.0437C25.86 28.2257 25.1964 29.8287 25.1969 31.5C25.1973 33.1713 25.8616 34.774 27.0437 35.9554C28.2257 37.1369 29.8287 37.8004 31.5 37.8ZM39.06 24.885H42.8369C43.0878 24.885 43.3285 24.7855 43.5062 24.6084C43.6839 24.4313 43.7842 24.1909 43.785 23.94V20.1632C43.785 19.9117 43.6851 19.6705 43.5073 19.4927C43.3295 19.3149 43.0883 19.215 42.8369 19.215H39.06C38.8085 19.215 38.5674 19.3149 38.3896 19.4927C38.2118 19.6705 38.1119 19.9117 38.1119 20.1632V23.94C38.115 24.4598 38.5403 24.885 39.06 24.885ZM31.5 1.26001C23.4799 1.26001 15.7882 4.446 10.1171 10.1171C4.446 15.7882 1.26001 23.4799 1.26001 31.5C1.26001 39.5202 4.446 47.2118 10.1171 52.8829C15.7882 58.554 23.4799 61.74 31.5 61.74C35.4712 61.74 39.4035 60.9578 43.0724 59.4381C46.7412 57.9184 50.0749 55.691 52.8829 52.8829C55.691 50.0749 57.9184 46.7412 59.4381 43.0724C60.9578 39.4035 61.74 35.4712 61.74 31.5C61.74 27.5288 60.9578 23.5965 59.4381 19.9277C57.9184 16.2588 55.691 12.9251 52.8829 10.1171C50.0749 7.30906 46.7412 5.0816 43.0724 3.56189C39.4035 2.04219 35.4712 1.26001 31.5 1.26001ZM47.25 43.7504C47.25 45.675 45.675 47.25 43.7504 47.25H19.2497C17.325 47.25 15.75 45.675 15.75 43.7504V19.2497C15.75 17.325 17.325 15.75 19.2497 15.75H43.7504C45.675 15.75 47.25 17.325 47.25 19.2497V43.7504Z" fill="white"/>
</svg>
