<svg width="63" height="63" viewBox="0 0 63 63" fill="none" xmlns="http://www.w3.org/2000/svg">
<path d="M31.5 1.26001C14.7987 1.26001 1.26001 14.7987 1.26001 31.5C1.26001 48.2013 14.7987 61.74 31.5 61.74C48.2013 61.74 61.74 48.2013 61.74 31.5C61.74 14.7987 48.2013 1.26001 31.5 1.26001ZM43.1298 35.3777C43.1298 35.3777 45.8042 38.0174 46.4625 39.2427C46.4814 39.2679 46.4909 39.2931 46.4972 39.3057C46.7649 39.7562 46.8279 40.1058 46.6956 40.3673C46.4751 40.802 45.7191 41.0162 45.4608 41.0351H40.7358C40.4082 41.0351 39.7215 40.95 38.8899 40.3767C38.2505 39.9294 37.6205 39.1955 37.0062 38.4804C36.0896 37.4157 35.2958 36.4959 34.4957 36.4959C34.394 36.4957 34.293 36.5117 34.1964 36.5432C33.5916 36.7385 32.8167 37.6016 32.8167 39.9011C32.8167 40.6193 32.2497 41.0319 31.8497 41.0319H29.6856C28.9485 41.0319 25.1087 40.7736 21.7067 37.1858C17.5424 32.7915 13.7939 23.9778 13.7624 23.8959C13.5261 23.3258 14.0144 23.0202 14.5467 23.0202H19.319C19.9553 23.0202 20.1632 23.4077 20.3081 23.751C20.4782 24.1511 21.1019 25.7418 22.1256 27.531C23.7857 30.4479 24.8031 31.6323 25.619 31.6323C25.7719 31.6305 25.9222 31.5916 26.0568 31.5189C27.1215 30.9267 26.9231 27.131 26.8758 26.3435C26.8758 26.1954 26.8727 24.6456 26.3277 23.9022C25.9371 23.3636 25.2725 23.1588 24.8693 23.0832C25.0325 22.858 25.2475 22.6754 25.4961 22.5509C26.2269 22.1855 27.5436 22.1319 28.8509 22.1319H29.5785C30.996 22.1508 31.3614 22.2422 31.8749 22.3713C32.9144 22.6202 32.9364 23.2911 32.8451 25.5875C32.8167 26.2395 32.7884 26.9766 32.7884 27.846C32.7884 28.035 32.7789 28.2366 32.7789 28.4508C32.7474 29.6195 32.7096 30.9456 33.5349 31.4906C33.6426 31.5581 33.767 31.5941 33.894 31.5945C34.1807 31.5945 35.0438 31.5945 37.3811 27.5846C38.1019 26.2939 38.7283 24.9527 39.2553 23.5715C39.3026 23.4896 39.4412 23.2376 39.605 23.1399C39.7258 23.0783 39.8599 23.0469 39.9956 23.0486H45.6057C46.2168 23.0486 46.6358 23.1399 46.7145 23.3762C46.8531 23.751 46.6893 24.8945 44.1284 28.3626L42.9849 29.8715C40.6634 32.9144 40.6634 33.0687 43.1298 35.3777Z" fill="white"/>
</svg>
